<svg width="109" height="41" viewBox="0 0 109 41" fill="none" xmlns="http://www.w3.org/2000/svg">
<rect width="34" height="41" rx="8" fill="#D68240"/>
<path d="M23.8504 8.07812C24.3717 8.07812 24.757 8.10079 25.0064 8.14613C25.2784 8.16879 25.573 8.27079 25.8904 8.45212C26.2304 8.63346 26.4684 8.93946 26.6044 9.37012C26.7404 9.80079 26.8084 10.3788 26.8084 11.1041C26.8084 11.8295 26.7404 12.4075 26.6044 12.8381C26.4684 13.2688 26.2304 13.5748 25.8904 13.7561C25.5504 13.9148 25.2444 14.0168 24.9724 14.0621C24.723 14.0848 24.3264 14.0961 23.7824 14.0961H13.3784V17.5301H20.0764C20.6204 17.5301 21.017 17.5528 21.2664 17.5981C21.5384 17.6208 21.8444 17.7228 22.1844 17.9041C22.7737 18.2441 23.0684 19.1395 23.0684 20.5901C23.0684 22.1768 22.6377 23.1175 21.7764 23.4121C21.4137 23.5255 20.8357 23.5821 20.0424 23.5821H13.3784V30.0081C13.3784 30.5521 13.3557 30.9488 13.3104 31.1981C13.2877 31.4475 13.2728 31.7276 13.0004 32.0001C12.9058 32.0947 11.7696 32.0001 11.3524 32.0001C9.76568 32.0001 8.83635 31.5695 8.56435 30.7081C8.42835 30.3455 8.36035 29.7675 8.36035 28.9741V12.0701C8.36035 10.9141 8.57568 10.1321 9.00635 9.72412C9.43702 9.29346 10.253 9.07812 11.4544 9.07812L23.8504 8.07812Z" fill="white"/>
<path d="M53.5003 7.5C56.263 7.5 52.4483 8.78434 55.9483 12.2201C57.983 14.2175 59.0003 16.7001 59.0003 19.6681C59.0003 22.6175 58.0297 25.1375 56.0883 27.2281C54.147 29.3001 51.7577 30.3361 48.9203 30.3361C46.083 30.3361 43.6657 29.3095 41.6683 27.2561C39.6897 25.2028 38.7003 22.7575 38.7003 19.9201C38.7003 18.3708 38.9803 16.9241 39.5403 15.5801C40.1003 14.2175 40.847 13.0788 41.7803 12.1641C42.7137 11.2495 43.787 10.5308 45.0003 10.0081C46.2137 9.48545 52.2123 7.5 53.5003 7.5ZM43.6563 19.7801C43.6563 21.4415 44.1883 22.7948 45.2523 23.8401C46.335 24.8668 47.539 25.3801 48.8643 25.3801C50.1897 25.3801 51.3843 24.8761 52.4483 23.8681C53.5123 22.8601 54.0443 21.5068 54.0443 19.8081C54.0443 18.1095 53.503 16.7468 52.4203 15.7201C51.3563 14.6935 50.1617 14.1801 48.8363 14.1801C47.511 14.1801 46.3163 14.7028 45.2523 15.7481C44.1883 16.7748 43.6563 18.1188 43.6563 19.7801Z" fill="#D68240"/>
<path d="M71.0233 9.22412C73.7859 9.22412 76.1846 10.2228 78.2193 12.2201C80.2539 14.2175 81.2713 16.7001 81.2713 19.6681C81.2713 22.6175 80.3006 25.1375 78.3593 27.2281C76.4179 29.3001 74.0286 30.3361 71.1913 30.3361C68.3539 30.3361 65.9366 29.3095 63.9393 27.2561C61.9606 25.2028 60.9713 22.7575 60.9713 19.9201C60.9713 18.3708 61.2513 16.9241 61.8113 15.5801C62.3713 14.2175 63.1179 13.0788 64.0513 12.1641C64.9846 11.2495 66.0579 10.5308 67.2713 10.0081C68.4846 9.48545 69.7353 9.22412 71.0233 9.22412ZM65.9273 19.7801C65.9273 21.4415 66.4593 22.7948 67.5233 23.8401C68.6059 24.8668 69.8099 25.3801 71.1353 25.3801C72.4606 25.3801 73.6553 24.8761 74.7193 23.8681C75.7833 22.8601 76.3153 21.5068 76.3153 19.8081C76.3153 18.1095 75.7739 16.7468 74.6913 15.7201C73.6273 14.6935 72.4326 14.1801 71.1073 14.1801C69.7819 14.1801 68.5873 14.7028 67.5233 15.7481C66.4593 16.7748 65.9273 18.1188 65.9273 19.7801Z" fill="#D68240"/>
<path d="M86.1542 9.44812L91.3342 9.47612C94.0409 9.47612 96.4209 10.4561 98.4742 12.4161C100.528 14.3575 101.554 16.7561 101.554 19.6121C101.554 22.4495 100.546 24.8855 98.5302 26.9201C96.5329 28.9548 94.1062 29.9721 91.2502 29.9721H86.1262C84.9875 29.9721 84.2782 29.7388 83.9982 29.2721C83.7742 28.8801 83.6622 28.2828 83.6622 27.4801V11.9121C83.6622 11.4641 83.6715 11.1375 83.6902 10.9321C83.7275 10.7268 83.8209 10.4841 83.9702 10.2041C84.2315 9.70012 84.9595 9.44812 86.1542 9.44812ZM91.3342 25.0161C92.6782 25.0161 93.8915 24.5215 94.9742 23.5321C96.0569 22.5241 96.5982 21.2641 96.5982 19.7521C96.5982 18.2401 96.0662 16.9801 95.0022 15.9721C93.9569 14.9455 92.7249 14.4321 91.3062 14.4321H88.6182V25.0161H91.3342Z" fill="#D68240"/>
<path d="M103.937 11.9401C103.937 11.5108 103.946 11.1935 103.965 10.9881C104.002 10.7641 104.096 10.5121 104.245 10.2321C104.506 9.72812 105.234 9.47612 106.429 9.47612C107.736 9.47612 108.51 9.82145 108.753 10.5121C108.846 10.8295 108.893 11.3148 108.893 11.9681V27.5361C108.893 27.9841 108.874 28.3108 108.837 28.5161C108.818 28.7215 108.734 28.9641 108.585 29.2441C108.324 29.7481 107.596 30.0001 106.401 30.0001C105.094 30.0001 104.329 29.6455 104.105 28.9361C103.993 28.6375 103.937 28.1615 103.937 27.5081V11.9401Z" fill="#D68240"/>
</svg>
